<svg width="1800" height="300" viewBox="0 0 1800 300" preserveAspectRatio="none" fill="none" xmlns="http://www.w3.org/2000/svg" role="img" aria-labelledby="title desc">
  <title id="title">Mortgage refinance adaptive banner</title>
  <desc id="desc">Adaptive mortgage banner with refinance comparison sheets and breakeven curve.</desc>
  <defs>
    <linearGradient id="bg" x1="0" y1="0" x2="1800" y2="300" gradientUnits="userSpaceOnUse">
      <stop offset="0" stop-color="#E8F2FF"/>
      <stop offset="1" stop-color="#FFF1E2"/>
    </linearGradient>
    <linearGradient id="card" x1="0" y1="0" x2="1" y2="1">
      <stop offset="0" stop-color="#FFFFFF" stop-opacity="0.95"/>
      <stop offset="1" stop-color="#FFFDF8" stop-opacity="0.9"/>
    </linearGradient>
  </defs>

  <rect width="1800" height="300" fill="url(#bg)"/>

  <rect x="28" y="22" width="620" height="256" rx="18" fill="url(#card)" stroke="#D7CFBF"/>
  <rect x="62" y="48" width="194" height="14" rx="7" fill="#E1EDFF"/>
  <rect x="62" y="74" width="548" height="9" rx="4.5" fill="#ECE4D6"/>
  <rect x="62" y="91" width="500" height="9" rx="4.5" fill="#ECE4D6"/>
  <rect x="62" y="112" width="548" height="146" rx="12" fill="#FAF6EF" stroke="#E3DACB"/>

  <path d="M90 236L174 198L254 214L346 162L450 182L540 134L620 154" stroke="#0E5EA8" stroke-width="6.5" stroke-linecap="round" stroke-linejoin="round"/>
  <g fill="#CB4F2F" fill-opacity="0.24">
    <circle cx="174" cy="198" r="6"/>
    <circle cx="254" cy="214" r="6"/>
    <circle cx="346" cy="162" r="6"/>
    <circle cx="450" cy="182" r="6"/>
    <circle cx="540" cy="134" r="6"/>
    <circle cx="620" cy="154" r="6"/>
  </g>

  <rect x="678" y="22" width="520" height="256" rx="18" fill="url(#card)" stroke="#D7CFBF"/>
  <rect x="708" y="48" width="162" height="14" rx="7" fill="#FDE5D7"/>

  <rect x="708" y="74" width="228" height="184" rx="12" fill="#F7F2E9" stroke="#E5DDCF"/>
  <rect x="954" y="74" width="214" height="184" rx="12" fill="#EAF3FF" stroke="#D4E3F8"/>

  <rect x="736" y="106" width="172" height="12" rx="6" fill="#DBD0C0"/>
  <rect x="736" y="128" width="138" height="12" rx="6" fill="#DBD0C0"/>
  <rect x="736" y="150" width="116" height="12" rx="6" fill="#DBD0C0"/>

  <rect x="982" y="106" width="158" height="12" rx="6" fill="#C2D4ED"/>
  <rect x="982" y="128" width="126" height="12" rx="6" fill="#C2D4ED"/>
  <rect x="982" y="150" width="182" height="12" rx="6" fill="#C2D4ED"/>

  <rect x="1228" y="22" width="544" height="256" rx="18" fill="url(#card)" stroke="#D7CFBF"/>
  <rect x="1258" y="48" width="198" height="14" rx="7" fill="#E4EFFD"/>
  <rect x="1258" y="76" width="482" height="9" rx="4.5" fill="#EFE7DA"/>

  <rect x="1258" y="112" width="482" height="12" rx="6" fill="#EFE7DA"/>
  <rect x="1258" y="136" width="442" height="12" rx="6" fill="#EFE7DA"/>
  <rect x="1258" y="160" width="394" height="12" rx="6" fill="#EFE7DA"/>
  <rect x="1258" y="184" width="358" height="12" rx="6" fill="#EFE7DA"/>
  <rect x="1258" y="208" width="306" height="12" rx="6" fill="#EFE7DA"/>
</svg>
