<svg width="1800" height="300" viewBox="0 0 1800 300" preserveAspectRatio="none" fill="none" xmlns="http://www.w3.org/2000/svg" role="img" aria-labelledby="title desc">
  <title id="title">Crypto staking adaptive banner</title>
  <desc id="desc">Adaptive staking banner with allocation wheel, chain links, and yield trajectory cards.</desc>
  <defs>
    <linearGradient id="bg" x1="0" y1="0" x2="1800" y2="300" gradientUnits="userSpaceOnUse">
      <stop offset="0" stop-color="#E7F4EF"/>
      <stop offset="1" stop-color="#E8ECFF"/>
    </linearGradient>
    <linearGradient id="card" x1="0" y1="0" x2="1" y2="1">
      <stop offset="0" stop-color="#FFFFFF" stop-opacity="0.95"/>
      <stop offset="1" stop-color="#FFFCF8" stop-opacity="0.9"/>
    </linearGradient>
  </defs>

  <rect width="1800" height="300" fill="url(#bg)"/>

  <rect x="22" y="22" width="560" height="256" rx="18" fill="url(#card)" stroke="#D0DAE4"/>
  <circle cx="302" cy="150" r="98" fill="#FFFFFF" stroke="#CBD7E3"/>
  <circle cx="302" cy="150" r="66" fill="#F4F9FF" stroke="#D8E5F1"/>
  <path d="M302 84A66 66 0 0 1 364 126L302 150Z" fill="#0E5EA8" fill-opacity="0.24"/>
  <path d="M364 126A66 66 0 0 1 324 210L302 150Z" fill="#22A06B" fill-opacity="0.24"/>
  <path d="M324 210A66 66 0 0 1 232 178L302 150Z" fill="#CB4F2F" fill-opacity="0.22"/>
  <path d="M232 178A66 66 0 0 1 302 84L302 150Z" fill="#7A67CC" fill-opacity="0.2"/>
  <circle cx="302" cy="150" r="32" fill="#FFFFFF" stroke="#D4DEE9"/>

  <rect x="610" y="22" width="584" height="256" rx="18" fill="url(#card)" stroke="#D0DAE4"/>
  <rect x="642" y="48" width="218" height="14" rx="7" fill="#DDF0EA"/>
  <rect x="642" y="76" width="520" height="10" rx="5" fill="#EDE5D8"/>

  <path d="M642 238L724 196L804 212L894 156L984 176L1068 124L1158 146" stroke="#0E5EA8" stroke-width="6.5" stroke-linecap="round" stroke-linejoin="round"/>
  <g fill="#22A06B" fill-opacity="0.3">
    <circle cx="724" cy="196" r="6"/>
    <circle cx="804" cy="212" r="6"/>
    <circle cx="894" cy="156" r="6"/>
    <circle cx="984" cy="176" r="6"/>
    <circle cx="1068" cy="124" r="6"/>
    <circle cx="1158" cy="146" r="6"/>
  </g>

  <rect x="1222" y="22" width="556" height="256" rx="18" fill="url(#card)" stroke="#D0DAE4"/>
  <rect x="1252" y="48" width="202" height="14" rx="7" fill="#E3EDFF"/>

  <circle cx="1336" cy="150" r="34" fill="#E5F2ED" stroke="#C3DCCE"/>
  <circle cx="1506" cy="132" r="30" fill="#E9ECFF" stroke="#CED6F0"/>
  <circle cx="1666" cy="168" r="36" fill="#FFF1E5" stroke="#E6D3C5"/>

  <path d="M1370 148H1476" stroke="#C4D0DC" stroke-width="4"/>
  <path d="M1538 136H1628" stroke="#C4D0DC" stroke-width="4"/>

  <rect x="1252" y="224" width="496" height="10" rx="5" fill="#EEE6D9"/>
</svg>
